<?xml version="1.0" standalone="no"?>
<!DOCTYPE svg PUBLIC "-//W3C//DTD SVG 20010904//EN"
 "http://www.w3.org/TR/2001/REC-SVG-20010904/DTD/svg10.dtd">
<svg version="1.0" xmlns="http://www.w3.org/2000/svg"
 width="500.000000pt" height="500.000000pt" viewBox="0 0 500.000000 500.000000"
 preserveAspectRatio="xMidYMid meet">

<g transform="translate(0.000000,500.000000) scale(0.100000,-0.100000)"
fill="#000000" stroke="none">
<path d="M2305 4930 c-341 -31 -579 -97 -880 -245 -498 -244 -859 -603 -1109
-1105 -120 -241 -185 -447 -225 -716 -82 -541 27 -1116 300 -1583 l32 -55 18
37 19 36 -79 143 c-43 79 -86 158 -95 176 l-17 32 311 0 310 0 0 -278 0 -278
148 -71 147 -71 -277 -1 c-169 -1 -278 -5 -278 -11 0 -17 264 -276 350 -342
122 -94 254 -180 372 -243 972 -513 2160 -318 2913 477 l106 113 -271 5 -271
5 141 74 140 75 0 273 0 273 316 0 c173 0 313 -3 311 -7 -2 -5 -45 -83 -96
-175 -83 -152 -90 -169 -79 -193 6 -14 15 -25 19 -25 12 0 164 316 203 420
123 336 170 726 131 1090 -117 1104 -973 1996 -2064 2150 -158 23 -417 32
-546 20z m405 -1825 c195 0 383 3 417 7 54 7 64 5 71 -10 5 -9 12 -101 15
-203 l7 -186 -71 -7 c-39 -4 -73 -5 -76 -2 -3 2 -11 42 -19 88 -8 46 -23 94
-33 108 -22 31 -71 49 -132 49 l-46 1 -7 -182 c-23 -692 -23 -698 41 -724 22
-10 58 -14 92 -12 l56 3 -3 -45 c-5 -94 30 -85 -325 -86 l-313 -1 7 55 c4 29
9 56 12 58 2 3 31 9 65 15 42 8 67 18 84 36 l23 25 3 430 3 431 -63 -5 c-116
-10 -140 -34 -160 -161 l-11 -75 -75 -6 c-41 -4 -76 -6 -78 -4 -1 2 1 58 6
123 5 66 10 154 10 196 0 43 5 80 12 87 8 8 30 9 72 4 34 -4 221 -7 416 -7z
m1475 -10 c50 -10 95 -24 101 -31 9 -11 8 -30 -2 -77 -7 -34 -18 -112 -25
-173 l-13 -112 -35 -6 c-20 -3 -60 -6 -88 -6 l-53 0 0 68 c0 122 -46 171 -169
180 -152 10 -258 -58 -301 -195 -30 -94 -38 -261 -17 -371 38 -197 127 -298
273 -310 133 -10 203 45 244 193 l17 60 83 7 c46 4 87 5 90 3 4 -3 4 -27 -1
-55 -4 -27 -13 -104 -20 -170 -9 -89 -16 -123 -29 -135 -9 -8 -62 -27 -116
-41 -132 -35 -347 -45 -444 -20 -194 49 -324 182 -376 386 -22 85 -23 271 -1
361 58 240 221 397 472 455 77 18 286 12 410 -11z m-3008 2 c1 -2 23 -73 48
-158 82 -277 188 -609 194 -609 6 1 28 68 191 576 l62 192 206 4 c114 2 209 3
211 1 2 -1 -1 -28 -5 -60 -8 -52 -12 -58 -34 -61 -56 -7 -88 -23 -100 -51 -12
-30 -5 -199 26 -591 22 -284 30 -306 114 -312 33 -2 45 -7 43 -18 -1 -8 -4
-35 -7 -60 l-6 -45 -203 -1 c-111 -1 -212 -4 -225 -8 -20 -7 -22 -4 -22 27 0
70 10 95 41 101 43 8 69 40 69 84 0 46 -29 507 -36 581 -3 29 -9 49 -13 45
-10 -11 -206 -578 -251 -724 -17 -58 -35 -108 -38 -111 -4 -4 -34 -10 -67 -14
l-61 -6 -63 193 c-120 368 -224 668 -233 668 -4 0 -8 -26 -8 -57 0 -32 -9
-179 -20 -328 -11 -148 -20 -275 -20 -282 0 -26 32 -43 82 -43 l51 0 -7 -56
c-4 -31 -9 -61 -12 -66 -4 -6 -56 -7 -128 -3 -66 3 -155 2 -196 -3 -41 -5 -76
-8 -78 -7 -1 1 1 29 4 62 6 56 8 60 38 69 38 11 72 60 80 116 20 142 76 748
71 775 -7 38 -29 52 -94 62 l-46 7 3 49 c1 28 4 55 6 60 3 9 424 11 433 2z
m2873 -1592 l0 -355 -1550 0 -1550 0 0 355 0 355 1550 0 1550 0 0 -355z
m-2770 -470 c0 -36 -2 -65 -4 -65 -8 0 -236 122 -236 126 0 2 54 4 120 4 l120
0 0 -65z m2675 56 c-5 -8 -212 -121 -222 -121 -2 0 -3 29 -3 65 l0 65 116 0
c69 0 113 -4 109 -9z"/>
<path d="M1137 1693 c-4 -3 -7 -98 -7 -210 l0 -203 215 0 215 0 0 210 0 210
-208 0 c-115 0 -212 -3 -215 -7z m221 -140 l3 -43 45 0 c44 0 44 0 44 -35 0
-35 0 -35 -45 -35 l-45 0 0 -45 c0 -45 0 -45 -35 -45 -35 0 -35 0 -35 45 l0
45 -46 0 c-45 0 -45 0 -42 33 3 30 6 32 46 35 41 3 42 4 42 41 0 45 6 53 40
49 22 -3 25 -8 28 -45z"/>
<path d="M1900 1506 c0 -164 3 -197 16 -210 13 -14 47 -16 220 -16 l204 0 0
210 0 210 -220 0 -220 0 0 -194z m197 84 c9 -16 20 -30 23 -30 3 0 14 14 23
30 14 23 25 30 48 30 16 0 29 -2 29 -5 0 -3 -15 -29 -34 -57 l-35 -51 40 -58
c21 -32 39 -60 39 -63 0 -4 -13 -6 -29 -6 -23 0 -34 8 -51 35 -12 19 -25 35
-28 35 -4 0 -17 -16 -30 -35 -17 -28 -29 -35 -53 -35 l-31 0 17 28 c10 15 29
42 41 61 l23 35 -21 35 c-12 20 -28 46 -36 59 -14 21 -13 22 16 22 24 0 35 -7
49 -30z"/>
<path d="M2690 1490 l0 -210 210 0 210 0 0 210 0 210 -210 0 -210 0 0 -210z
m245 100 c0 -33 -2 -35 -35 -35 -33 0 -35 2 -38 38 l-3 38 38 -3 c36 -3 38 -5
38 -38z m95 -95 l0 -35 -130 0 -130 0 0 35 0 35 130 0 130 0 0 -35z m-95 -95
c0 -33 -2 -35 -37 -38 -37 -3 -38 -2 -38 31 0 42 7 49 45 45 27 -3 30 -6 30
-38z"/>
<path d="M3460 1490 l0 -210 205 0 205 0 0 198 c0 141 -3 201 -12 210 -9 9
-68 12 -205 12 l-193 0 0 -210z m330 -20 l0 -30 -135 0 -135 0 0 30 0 30 135
0 135 0 0 -30z"/>
</g>
</svg>
